<?xml version="1.0" encoding="UTF-8"?>
<svg version="1.1" xmlns="http://www.w3.org/2000/svg" width="500" height="351">
<path d="M0 0 C3.49344757 1.6914174 6.91464146 3.51166225 10.32958984 5.35546875 C13.62629878 7.12432256 16.9637249 8.80881764 20.30859375 10.484375 C20.96287354 10.81373047 21.61715332 11.14308594 22.29125977 11.48242188 C28.01642889 14.33700747 33.84928544 16.91604782 39.70898438 19.47998047 C47.42358461 22.87633489 54.92807079 26.65297225 62.43359375 30.484375 C77.69002311 38.22737814 93.1696701 45.53686109 108.6784668 52.75927734 C112.21900556 54.41458215 115.72662529 56.12354534 119.21875 57.87890625 C124.62872874 60.59650569 130.08995267 63.19986093 135.55859375 65.796875 C142.19893932 68.95808787 148.81555487 72.15088783 155.37109375 75.484375 C161.97582161 78.8354438 168.69180889 81.91978491 175.43359375 84.984375 C184.2494629 88.99227501 192.96248981 93.1415573 201.58691406 97.54492188 C204.85984453 99.2099452 208.14767646 100.84517598 211.43359375 102.484375 C213.43359375 103.484375 215.43359375 104.484375 217.43359375 105.484375 C216.43359375 108.484375 216.43359375 108.484375 214.51708984 109.53662109 C213.67227051 109.85711426 212.82745117 110.17760742 211.95703125 110.5078125 C210.50828613 111.07012573 210.50828613 111.07012573 209.03027344 111.64379883 C207.96711914 112.04493896 206.90396484 112.4460791 205.80859375 112.859375 C203.5289068 113.74341367 201.25031057 114.63026875 198.97265625 115.51953125 C197.14589355 116.23133545 197.14589355 116.23133545 195.28222656 116.95751953 C187.87798471 119.87312666 180.56456484 123.01501629 173.23895264 126.121521 C165.66875328 129.33035049 158.07757683 132.44012651 150.37524414 135.32128906 C147.22503721 136.56683523 144.17939963 137.96638454 141.12109375 139.421875 C136.27665168 141.7095282 131.40077366 143.66021586 126.37109375 145.484375 C116.29146274 149.17216136 107.06593454 154.0605269 97.7956543 159.44604492 C93.64180591 161.84313417 89.42282749 164.05271982 85.12109375 166.171875 C78.31077852 169.53183141 71.71711841 173.07617081 65.24609375 177.05078125 C64.48723877 177.51121826 63.72838379 177.97165527 62.9465332 178.44604492 C61.4150328 179.37684344 59.88988828 180.31819393 58.37182617 181.27075195 C57.66388916 181.69960693 56.95595215 182.12846191 56.2265625 182.5703125 C55.27559692 183.1588501 55.27559692 183.1588501 54.30541992 183.75927734 C51.96851725 184.66453376 50.75773737 184.30125306 48.43359375 183.484375 C51.85174115 178.17619315 55.4389499 173.0036211 59.18359375 167.921875 C59.9415625 166.88933594 60.69953125 165.85679687 61.48046875 164.79296875 C62.44726562 163.65021484 62.44726562 163.65021484 63.43359375 162.484375 C64.09359375 162.484375 64.75359375 162.484375 65.43359375 162.484375 C65.68866699 161.74106934 65.94374023 160.99776367 66.20654297 160.23193359 C67.5018432 157.3315538 68.81714151 155.74040282 71.06640625 153.5234375 C71.79085938 152.80414063 72.5153125 152.08484375 73.26171875 151.34375 C74.0196875 150.60640625 74.77765625 149.8690625 75.55859375 149.109375 C76.29335938 148.37976563 77.028125 147.65015625 77.78515625 146.8984375 C91.39084821 133.484375 91.39084821 133.484375 94.43359375 133.484375 C94.43359375 132.824375 94.43359375 132.164375 94.43359375 131.484375 C96.08359375 130.824375 97.73359375 130.164375 99.43359375 129.484375 C99.43359375 128.824375 99.43359375 128.164375 99.43359375 127.484375 C101.3828125 125.85546875 101.3828125 125.85546875 104.12109375 123.921875 C105.13042969 123.20773438 106.13976562 122.49359375 107.1796875 121.7578125 C108.25347656 121.00757813 109.32726562 120.25734375 110.43359375 119.484375 C111.45582031 118.75476563 112.47804688 118.02515625 113.53125 117.2734375 C123.81940848 110.00670846 134.50739036 103.2648304 145.796875 97.65234375 C147.87666811 96.16819544 148.52998324 94.85690901 149.43359375 92.484375 C149.85595211 88.54236359 150.07608019 86.38861517 147.74609375 83.109375 C145.02724759 81.19883445 143.75366495 80.75549193 140.43359375 80.484375 C137.35098165 81.09243938 134.41143126 82.05367271 131.43359375 83.046875 C130.16491455 83.45969727 130.16491455 83.45969727 128.87060547 83.88085938 C121.79506163 86.24161464 115.12020152 89.1837153 108.43359375 92.484375 C106.1449135 93.55329271 103.85323655 94.6158178 101.55859375 95.671875 C100.55054688 96.13980469 99.5425 96.60773438 98.50390625 97.08984375 C96.35655875 98.06516571 94.1949219 99.0093562 92.0234375 99.9296875 C74.62163523 107.46605018 58.3690735 117.27052477 42.43359375 127.484375 C41.79244629 127.89445801 41.15129883 128.30454102 40.49072266 128.72705078 C32.60742504 133.79675379 25.07787457 139.13914338 17.82373047 145.08178711 C13.6341285 148.484375 13.6341285 148.484375 11.43359375 148.484375 C11.43359375 149.144375 11.43359375 149.804375 11.43359375 150.484375 C9.81640625 151.89453125 9.81640625 151.89453125 7.55859375 153.546875 C3.07371453 156.92821927 -1.07506994 160.5699594 -5.20703125 164.37109375 C-6.85544497 165.84757027 -8.55947198 167.26322227 -10.30078125 168.62890625 C-12.63645854 170.28395653 -12.63645854 170.28395653 -13.56640625 172.484375 C-15.21640625 172.484375 -16.86640625 172.484375 -18.56640625 172.484375 C-18.81390625 171.865625 -19.06140625 171.246875 -19.31640625 170.609375 C-20.35452642 168.37502911 -20.35452642 168.37502911 -22.328125 167.6953125 C-38.27232985 159.06930289 -50.83694775 130.66635502 -56.28857422 114.31884766 C-57.63314757 109.75580148 -58.61131741 105.14226982 -59.56640625 100.484375 C-59.82808594 99.45441406 -60.08976563 98.42445312 -60.359375 97.36328125 C-62.73562959 87.70145422 -63.59452769 77.87886839 -64.56469727 67.99316406 C-64.73956665 66.2195752 -64.73956665 66.2195752 -64.91796875 64.41015625 C-65.01932129 63.34192627 -65.12067383 62.27369629 -65.22509766 61.1730957 C-65.48993216 58.3900601 -65.48993216 58.3900601 -66.56640625 55.484375 C-69.26090887 54.58620746 -71.2025203 54.23220137 -74.00390625 54.109375 C-74.76574219 54.06039062 -75.52757812 54.01140625 -76.3125 53.9609375 C-78.7221163 54.33664389 -78.7221163 54.33664389 -80.65625 56.28515625 C-83.43976042 60.94710928 -84.46981416 65.78885827 -85.69140625 71.046875 C-85.94277344 72.06845703 -86.19414062 73.09003906 -86.453125 74.14257812 C-92.41309267 98.87176335 -93.47120654 123.88874681 -91.69140625 149.171875 C-91.6130957 150.28860596 -91.53478516 151.40533691 -91.45410156 152.5559082 C-90.73098625 161.96125568 -89.46999889 171.24335587 -87.56640625 180.484375 C-90.56640625 181.484375 -90.56640625 181.484375 -93.0546875 180.41015625 C-93.98667969 179.87777344 -94.91867188 179.34539062 -95.87890625 178.796875 C-96.80316406 178.27738281 -97.72742188 177.75789062 -98.6796875 177.22265625 C-100.63705093 176.04400033 -102.55930231 174.8053796 -104.4453125 173.515625 C-107.9159707 171.25687373 -111.46728827 169.46546932 -115.19140625 167.671875 C-120.17629616 165.22975936 -125.04216335 162.69998654 -129.81640625 159.859375 C-139.37284797 154.17716641 -149.2858673 149.67487464 -159.56640625 145.484375 C-162.86152575 144.11757324 -166.15178562 142.73934964 -169.44140625 141.359375 C-170.25037354 141.02244629 -171.05934082 140.68551758 -171.89282227 140.33837891 C-172.66940186 140.01272949 -173.44598145 139.68708008 -174.24609375 139.3515625 C-174.93429199 139.06394043 -175.62249023 138.77631836 -176.33154297 138.47998047 C-179.11850835 137.23841997 -181.83750193 135.84882716 -184.56640625 134.484375 C-184.56640625 149.334375 -184.56640625 164.184375 -184.56640625 179.484375 C-182.58640625 180.144375 -180.60640625 180.804375 -178.56640625 181.484375 C-174.31717672 185.96329261 -173.41636434 189.36115531 -173.37890625 195.421875 C-173.36472656 196.46214844 -173.35054688 197.50242188 -173.3359375 198.57421875 C-173.56248343 201.43484113 -174.08907006 203.06107651 -175.56640625 205.484375 C-176.22640625 205.484375 -176.88640625 205.484375 -177.56640625 205.484375 C-177.56640625 206.144375 -177.56640625 206.804375 -177.56640625 207.484375 C-179.52788499 208.87375577 -181.52807201 210.2104161 -183.56640625 211.484375 C-183.26347656 212.72525879 -182.96054688 213.96614258 -182.6484375 215.24462891 C-181.52335828 219.86113228 -180.40731317 224.47978058 -179.29394531 229.09912109 C-178.81137187 231.0958092 -178.32637014 233.09191208 -177.83886719 235.08740234 C-177.13743825 237.96039803 -176.44484927 240.83540443 -175.75390625 243.7109375 C-175.53516846 244.59866852 -175.31643066 245.48639954 -175.09106445 246.40103149 C-174.79075317 247.66165909 -174.79075317 247.66165909 -174.484375 248.94775391 C-174.30672607 249.68055573 -174.12907715 250.41335754 -173.94604492 251.16836548 C-173.56640625 253.484375 -173.56640625 253.484375 -173.56640625 259.484375 C-184.78640625 259.484375 -196.00640625 259.484375 -207.56640625 259.484375 C-206.93365997 253.7896585 -206.32033488 248.85857307 -205.0078125 243.39453125 C-204.70423828 242.11513672 -204.40066406 240.83574219 -204.08789062 239.51757812 C-203.76852649 238.19393864 -203.44886346 236.87037125 -203.12890625 235.546875 C-201.13255885 227.21834721 -199.15187206 218.90259106 -197.56640625 210.484375 C-198.49453125 209.80375 -199.42265625 209.123125 -200.37890625 208.421875 C-203.82048711 205.50224005 -205.33533758 202.90173906 -206.56640625 198.484375 C-206.8486567 193.17293466 -206.17351862 188.82350685 -203.19140625 184.359375 C-202.32515625 183.410625 -201.45890625 182.461875 -200.56640625 181.484375 C-199.57640625 181.484375 -198.58640625 181.484375 -197.56640625 181.484375 C-197.56640625 164.324375 -197.56640625 147.164375 -197.56640625 129.484375 C-210.88201147 123.33871105 -224.20970093 117.36388124 -237.80761719 111.88110352 C-245.93268382 108.58287731 -245.93268382 108.58287731 -249.56640625 106.484375 C-249.89640625 105.494375 -250.22640625 104.504375 -250.56640625 103.484375 C-249.7300061 103.11324585 -249.7300061 103.11324585 -248.87670898 102.73461914 C-245.13596557 101.0736012 -241.39645063 99.41018796 -237.6640625 97.73046875 C-227.4588272 93.14994704 -217.1824551 88.75243175 -206.86547852 84.42944336 C-197.86493122 80.6483124 -188.98563651 76.6607392 -180.19140625 72.421875 C-171.97349171 68.52351859 -163.53889926 65.13640381 -155.12536621 61.6890564 C-147.01005166 58.36128494 -138.99817298 54.92247278 -131.08984375 51.125 C-126.79563795 49.12548067 -122.4401712 47.30160101 -118.06640625 45.484375 C-111.14705639 42.60772191 -104.36176009 39.54952644 -97.58984375 36.33984375 C-91.81242451 33.64007375 -85.92789474 31.18381153 -80.06103516 28.68652344 C-72.82905134 25.60620951 -65.66103796 22.41500446 -58.55078125 19.0625 C-52.78468912 16.3605148 -46.99384998 13.81141171 -41.06640625 11.484375 C-32.59903185 8.15864568 -24.25989695 4.5589832 -16.31640625 0.109375 C-10.3788599 -2.76125691 -6.09549697 -2.5904193 0 0 Z M-9.56640625 73.484375 C-17.16193669 74.70341075 -24.63725709 80.50123318 -29.2890625 86.4609375 C-34.56734583 94.82225483 -37.62669091 103.56847338 -36.56640625 113.484375 C-34.15535825 123.95521201 -30.16600369 131.25586493 -21.31640625 137.421875 C-13.53929379 142.03131378 -6.5703814 142.24284647 2.11328125 140.21484375 C12.34746464 136.9929712 18.56161443 129.68839779 23.43359375 120.484375 C26.81594246 111.62796194 26.61828818 100.37565387 23.43359375 91.484375 C22.00252592 88.64125686 20.50041095 85.91553497 18.43359375 83.484375 C17.77359375 83.484375 17.11359375 83.484375 16.43359375 83.484375 C16.43359375 82.824375 16.43359375 82.164375 16.43359375 81.484375 C8.01905267 74.4369934 0.97398479 73.484375 -9.56640625 73.484375 Z " fill="#4C9AD9" transform="translate(267.56640625,14.515625)"/>
<path d="M0 0 C0.99 0.33 1.98 0.66 3 1 C3.07476562 2.29808594 3.14953125 3.59617187 3.2265625 4.93359375 C5.54748811 39.01622733 15.95414038 70.71359385 36.71484375 97.890625 C38.45184705 100.25413719 39.84289832 102.32874811 41 105 C41.66 105 42.32 105 43 105 C44.48046875 106.5390625 44.48046875 106.5390625 46.1875 108.625 C49.09109783 112.05818485 52.11499029 114.96225678 55.6171875 117.7734375 C57 119 57 119 58 121 C59.485 121.495 59.485 121.495 61 122 C61.309375 121.195625 61.309375 121.195625 61.625 120.375 C63.53250426 117.08021991 66.04819384 114.40636372 69 112 C69.66 112 70.32 112 71 112 C71 111.34 71 110.68 71 110 C71.66 110 72.32 110 73 110 C73.495 108.515 73.495 108.515 74 107 C76.15234375 105.01953125 76.15234375 105.01953125 78.9375 102.8125 C80.42443359 101.62914062 80.42443359 101.62914062 81.94140625 100.421875 C82.95074219 99.62265625 83.96007812 98.8234375 85 98 C86.37478516 96.86304688 86.37478516 96.86304688 87.77734375 95.703125 C89.06318359 94.64351562 89.06318359 94.64351562 90.375 93.5625 C91.14585937 92.92441406 91.91671875 92.28632813 92.7109375 91.62890625 C95.06472512 89.95394134 97.28325414 88.95518096 100 88 C100 87.34 100 86.68 100 86 C106.01834734 80.82959851 112.6482428 76.43173777 119.50390625 72.4609375 C122.21553736 70.87384824 124.85654001 69.19804303 127.5 67.5 C131.77686178 64.76472795 136.08374906 62.09670669 140.453125 59.51171875 C142.14029216 58.51028671 143.8176742 57.49216775 145.484375 56.45703125 C195.54676366 26 195.54676366 26 217 26 C216 29 216 29 213.65625 30.4375 C212.6146875 30.953125 211.573125 31.46875 210.5 32 C198.59679749 38.18756783 187.43666165 45.57627938 177 54 C170.42239186 59 170.42239186 59 168 59 C168 59.66 168 60.32 168 61 C162.52380952 66 162.52380952 66 160 66 C160 66.66 160 67.32 160 68 C158.3594214 69.19022369 156.71444737 70.37680031 155.01953125 71.48828125 C150.2225936 75.07902568 146.29081794 79.78181036 142.25 84.1875 C141.75628906 84.72052734 141.26257813 85.25355469 140.75390625 85.80273438 C138.070738 88.68080594 138.070738 88.68080594 136 92 C135.34 92 134.68 92 134 92 C133.7421875 92.57105469 133.484375 93.14210938 133.21875 93.73046875 C131.88228071 96.21921445 130.32032738 98.15272633 128.5 100.3125 C119.81631426 111.02552534 112.46019076 122.82832588 106 135 C105.53609863 135.86512207 105.07219727 136.73024414 104.59423828 137.62158203 C100.73460583 145.04338714 97.87652668 152.52565489 95.375 160.5 C94.98820068 161.72468994 94.60140137 162.94937988 94.20288086 164.21118164 C84.44661584 195.79964812 80.46453867 232.21705032 89.51171875 264.50390625 C90.02634859 267.13469397 89.72680324 268.47374833 89 271 C82.956487 266.74188552 77.69327738 262.00098047 72.5 256.75 C71.77296875 256.03070313 71.0459375 255.31140625 70.296875 254.5703125 C69.61109375 253.88195312 68.9253125 253.19359375 68.21875 252.484375 C67.59935547 251.86272461 66.97996094 251.24107422 66.34179688 250.60058594 C65 249 65 249 65 247 C64.34 247 63.68 247 63 247 C61.44140625 245.3046875 61.44140625 245.3046875 59.5625 242.875 C58.84964844 241.95976562 58.13679688 241.04453125 57.40234375 240.1015625 C56.60957031 239.07804688 55.81679687 238.05453125 55 237 C54.12798897 235.90230366 53.25423966 234.80598633 52.37890625 233.7109375 C21.11612782 194.52049176 0.24050257 149.84335538 -7 100 C-7.11714355 99.2678125 -7.23428711 98.535625 -7.35498047 97.78125 C-12.29487214 66.77664016 -10.16013701 31.01772596 -1 1 C-0.67 0.67 -0.34 0.34 0 0 Z " fill="#4A99D9" transform="translate(192,78)"/>
<path d="M0 0 C2.1640625 1.01171875 2.1640625 1.01171875 5.3515625 3.19921875 C5.8465625 4.68421875 5.8465625 4.68421875 6.3515625 6.19921875 C7.0115625 6.19921875 7.6715625 6.19921875 8.3515625 6.19921875 C13.84152235 14.22144791 15.40013185 22.27064858 13.7890625 31.88671875 C12.13816645 37.87121693 9.15306651 43.2216865 4.02734375 46.83984375 C1.83558427 48.06807612 -0.356568 49.17246121 -2.6484375 50.19921875 C-3.6384375 50.69421875 -3.6384375 50.69421875 -4.6484375 51.19921875 C-12.51882979 52.02493056 -19.35797097 52.25018829 -25.7421875 47.15234375 C-31.75412484 40.99257189 -34.50280136 34.77583175 -34.82421875 26.1640625 C-34.44500093 19.76792187 -32.58850717 13.33844006 -28.6484375 8.19921875 C-27.9884375 8.19921875 -27.3284375 8.19921875 -26.6484375 8.19921875 C-26.3184375 7.20921875 -25.9884375 6.21921875 -25.6484375 5.19921875 C-24.9884375 5.19921875 -24.3284375 5.19921875 -23.6484375 5.19921875 C-23.6484375 4.53921875 -23.6484375 3.87921875 -23.6484375 3.19921875 C-16.76135123 -2.04808508 -8.23629985 -2.49032665 0 0 Z " fill="#4C9AD9" transform="translate(272.6484375,96.80078125)"/>
<path d="M0 0 C-1 3 -1 3 -3.34375 4.4375 C-4.3853125 4.953125 -5.426875 5.46875 -6.5 6 C-18.40320251 12.18756783 -29.56333835 19.57627938 -40 28 C-46.57760814 33 -46.57760814 33 -49 33 C-49 33.66 -49 34.32 -49 35 C-54.47619048 40 -54.47619048 40 -57 40 C-57 40.66 -57 41.32 -57 42 C-58.6405786 43.19022369 -60.28555263 44.37680031 -61.98046875 45.48828125 C-66.7774064 49.07902568 -70.70918206 53.78181036 -74.75 58.1875 C-75.24371094 58.72052734 -75.73742187 59.25355469 -76.24609375 59.80273438 C-78.929262 62.68080594 -78.929262 62.68080594 -81 66 C-81.66 66 -82.32 66 -83 66 C-83.2578125 66.57105469 -83.515625 67.14210938 -83.78125 67.73046875 C-85.11771929 70.21921445 -86.67967262 72.15272633 -88.5 74.3125 C-97.18368574 85.02552534 -104.53980924 96.82832588 -111 109 C-111.46390137 109.86512207 -111.92780273 110.73024414 -112.40576172 111.62158203 C-116.26539417 119.04338714 -119.12347332 126.52565489 -121.625 134.5 C-122.01179932 135.72468994 -122.39859863 136.94937988 -122.79711914 138.21118164 C-132.55338416 169.79964812 -136.53546133 206.21705032 -127.48828125 238.50390625 C-126.98287713 241.0875321 -127.13818039 242.5417897 -128 245 C-130.475 242.525 -130.475 242.525 -133 240 C-132.34 240 -131.68 240 -131 240 C-131.12375 238.989375 -131.2475 237.97875 -131.375 236.9375 C-131.46499268 236.1959668 -131.55498535 235.45443359 -131.64770508 234.69042969 C-131.90042403 232.76044851 -132.18235107 230.83420629 -132.4831543 228.91113281 C-134.04178253 218.52987687 -134.43912617 208.30206608 -134.4375 197.8125 C-134.43889984 196.94270508 -134.44029968 196.07291016 -134.44174194 195.17675781 C-134.42094322 179.35959621 -132.84360678 164.39611179 -129 149 C-128.80245117 148.20851562 -128.60490234 147.41703125 -128.40136719 146.6015625 C-127.19131918 141.97035975 -125.68578506 137.47968551 -124 133 C-123.71785645 132.23316895 -123.43571289 131.46633789 -123.14501953 130.67626953 C-108.56565053 91.39918704 -82.3101723 56.51312456 -49 31 C-48.05769531 30.24074219 -47.11539063 29.48148438 -46.14453125 28.69921875 C-38.56851088 22.67873108 -30.62255589 17.38466492 -22.45141602 12.20214844 C-21.61537842 11.67008789 -20.77934082 11.13802734 -19.91796875 10.58984375 C-19.16281982 10.11409912 -18.4076709 9.63835449 -17.62963867 9.14819336 C-17.09185791 8.76928955 -16.55407715 8.39038574 -16 8 C-16 7.67 -16 7.34 -16 7 C-17.32 6.67 -18.64 6.34 -20 6 C-17.41958904 4.99183944 -14.83613056 3.9932889 -12.25 3 C-11.52039063 2.71382813 -10.79078125 2.42765625 -10.0390625 2.1328125 C-9.33007812 1.86210938 -8.62109375 1.59140625 -7.890625 1.3125 C-7.24125977 1.06113281 -6.59189453 0.80976562 -5.92285156 0.55078125 C-4 0 -4 0 0 0 Z " fill="#F2F7FC" transform="translate(409,104)"/>
<path d="M0 0 C0.7425 0.09667969 1.485 0.19335938 2.25 0.29296875 C2.8275 0.46441406 3.405 0.63585937 4 0.8125 C4.33 1.4725 4.66 2.1325 5 2.8125 C4.03320312 2.59464844 3.06640625 2.37679687 2.0703125 2.15234375 C-2.71829757 1.47770531 -6.6201213 2.84088155 -11.125 4.375 C-11.9617627 4.65021484 -12.79852539 4.92542969 -13.66064453 5.20898438 C-20.69368722 7.58079597 -27.34667061 10.52826725 -34 13.8125 C-36.28868025 14.88141771 -38.5803572 15.9439428 -40.875 17 C-41.88304687 17.46792969 -42.89109375 17.93585938 -43.9296875 18.41796875 C-46.077035 19.39329071 -48.23867185 20.3374812 -50.41015625 21.2578125 C-67.81195852 28.79417518 -84.06452025 38.59864977 -100 48.8125 C-100.64114746 49.22258301 -101.28229492 49.63266602 -101.94287109 50.05517578 C-109.82616871 55.12487879 -117.35571918 60.46726838 -124.60986328 66.40991211 C-128.79946525 69.8125 -128.79946525 69.8125 -131 69.8125 C-131 70.4725 -131 71.1325 -131 71.8125 C-132.6171875 73.22265625 -132.6171875 73.22265625 -134.875 74.875 C-139.35987922 78.25634427 -143.50866369 81.8980844 -147.640625 85.69921875 C-149.28903872 87.17569527 -150.99306573 88.59134727 -152.734375 89.95703125 C-155.07005229 91.61208153 -155.07005229 91.61208153 -156 93.8125 C-157.65 93.8125 -159.3 93.8125 -161 93.8125 C-160.360625 93.338125 -159.72125 92.86375 -159.0625 92.375 C-156.48613715 90.21926782 -154.21309722 88.02606213 -151.875 85.625 C-146.89434889 80.6035907 -141.55110337 76.18225086 -136 71.8125 C-135.32727051 71.27931152 -134.65454102 70.74612305 -133.96142578 70.19677734 C-124.53060759 62.73097369 -115.0599829 55.41798521 -105 48.8125 C-104.33516602 48.37260742 -103.67033203 47.93271484 -102.98535156 47.47949219 C-75.23581681 29.21761975 -45.22290912 14.14250083 -14 2.8125 C-12.77410156 2.35895142 -12.77410156 2.35895142 -11.5234375 1.89624023 C-7.53623344 0.47875958 -4.27973001 -0.64960188 0 0 Z " fill="#F3F8FC" transform="translate(410,93.1875)"/>
<path d="M0 0 C0.99 0.33 1.98 0.66 3 1 C3.07476562 2.29808594 3.14953125 3.59617187 3.2265625 4.93359375 C4.50702596 23.67412857 8.13368292 42.06956709 15.21484375 59.5234375 C16 62 16 62 15 65 C7.33797489 48.29026439 3.09536475 30.08015908 1.32421875 11.81640625 C1.16868848 9.05238494 1.16868848 9.05238494 0 7 C-11.14451186 54.46317487 -10.82182345 108.54954896 9.26953125 153.86328125 C10.13065871 156.3821942 9.73093039 157.49979291 9 160 C1.60571225 141.25176152 -3.95738795 122.09954622 -6.70751953 102.10351562 C-6.98882534 100.080368 -7.30399798 98.06466606 -7.62109375 96.046875 C-12.06412229 65.44838064 -10.02749825 30.58306939 -1 1 C-0.67 0.67 -0.34 0.34 0 0 Z " fill="#E2EFF9" transform="translate(192,78)"/>
<path d="M0 0 C-1 3 -1 3 -2.91650391 4.05224609 C-4.18373291 4.53298584 -4.18373291 4.53298584 -5.4765625 5.0234375 C-6.44239258 5.39831299 -7.40822266 5.77318848 -8.40332031 6.15942383 C-9.46647461 6.56056396 -10.52962891 6.9617041 -11.625 7.375 C-13.90468695 8.25903867 -16.18328318 9.14589375 -18.4609375 10.03515625 C-19.6787793 10.50969238 -20.89662109 10.98422852 -22.15136719 11.47314453 C-29.55560904 14.38875166 -36.86902891 17.53064129 -44.19464111 20.637146 C-51.76484047 23.84597549 -59.35601692 26.95575151 -67.05834961 29.83691406 C-70.20855654 31.08246023 -73.25419412 32.48200954 -76.3125 33.9375 C-81.15694207 36.2251532 -86.03282009 38.17584086 -91.0625 40 C-101.14213101 43.68778636 -110.36765921 48.5761519 -119.63793945 53.96166992 C-123.79178784 56.35875917 -128.01076626 58.56834482 -132.3125 60.6875 C-139.12281523 64.04745641 -145.71647534 67.59179581 -152.1875 71.56640625 C-153.32578247 72.25706177 -153.32578247 72.25706177 -154.48706055 72.96166992 C-156.01856095 73.89246844 -157.54370547 74.83381893 -159.06176758 75.78637695 C-159.76970459 76.21523193 -160.4776416 76.64408691 -161.20703125 77.0859375 C-161.8410083 77.4782959 -162.47498535 77.8706543 -163.12817383 78.27490234 C-165.4650765 79.18015876 -166.67585638 78.81687806 -169 78 C-167.1875 76 -167.1875 76 -165 74 C-164.01 74 -163.02 74 -162 74 C-159.72857304 73.00401831 -159.72857304 73.00401831 -157.265625 71.61328125 C-156.31026855 71.09330566 -155.35491211 70.57333008 -154.37060547 70.03759766 C-153.34080566 69.46831543 -152.31100586 68.8990332 -151.25 68.3125 C-150.18539551 67.73032715 -149.12079102 67.1481543 -148.02392578 66.54833984 C-139.69760382 61.97960047 -131.42159685 57.32080494 -123.19238281 52.5793457 C-109.75202551 44.89007798 -95.97083879 38.7812148 -81.62435913 33.00750732 C-77.33950509 31.28291834 -73.0598288 29.54564979 -68.77983093 27.80905151 C-66.55653301 26.90702329 -64.33298982 26.00559936 -62.10920715 25.10476685 C-51.13278036 20.65637228 -40.17892167 16.15392048 -29.23242188 11.63244629 C-26.22978313 10.39246146 -23.22623746 9.15469198 -20.22265625 7.91699219 C-18.39185782 7.16097501 -16.56112497 6.40479897 -14.73046875 5.6484375 C-13.90044846 5.30664459 -13.07042816 4.96485168 -12.21525574 4.61270142 C-11.45094742 4.29626678 -10.6866391 3.97983215 -9.89916992 3.65380859 C-9.23866135 3.38104095 -8.57815277 3.10827332 -7.89762878 2.82723999 C-6.53597318 2.23364867 -5.19876903 1.58273969 -3.88130188 0.89663696 C-2 0 -2 0 0 0 Z " fill="#EFF6FB" transform="translate(485,120)"/>
<path d="M0 0 C0.66 0.66 1.32 1.32 2 2 C1.39671875 2.01417969 0.7934375 2.02835937 0.171875 2.04296875 C-0.62734375 2.09066406 -1.4265625 2.13835937 -2.25 2.1875 C-3.03890625 2.22230469 -3.8278125 2.25710937 -4.640625 2.29296875 C-8.22473075 3.36701369 -9.07031318 4.77591419 -11 8 C-12.29623148 11.79734169 -13.21750859 15.65644569 -14.125 19.5625 C-14.50205078 21.09487305 -14.50205078 21.09487305 -14.88671875 22.65820312 C-20.84668642 47.38738835 -21.90480029 72.40437181 -20.125 97.6875 C-20.00753418 99.36259644 -20.00753418 99.36259644 -19.88769531 101.0715332 C-19.16458 110.47688068 -17.90359264 119.75898087 -16 129 C-19 130 -19 130 -21.26171875 129.00390625 C-22.06222656 128.52824219 -22.86273438 128.05257812 -23.6875 127.5625 C-24.89986328 126.85287109 -24.89986328 126.85287109 -26.13671875 126.12890625 C-26.75160156 125.75636719 -27.36648437 125.38382812 -28 125 C-27.01 124.505 -27.01 124.505 -26 124 C-24.0546875 124.77734375 -24.0546875 124.77734375 -21.875 125.9375 C-21.15054688 126.31777344 -20.42609375 126.69804687 -19.6796875 127.08984375 C-19.12539062 127.39019531 -18.57109375 127.69054687 -18 128 C-18.19335938 127.14921875 -18.38671875 126.2984375 -18.5859375 125.421875 C-26.05111358 90.68293681 -24.70370136 54.42390572 -17.0625 19.875 C-16.82192871 18.77728271 -16.58135742 17.67956543 -16.33349609 16.54858398 C-14.0405077 6.82963017 -11.49003273 -0.83563874 0 0 Z " fill="#EDF5FB" transform="translate(196,66)"/>
<path d="M0 0 C-0.70125 -0.01160156 -1.4025 -0.02320312 -2.125 -0.03515625 C-5.0847753 -0.06330629 -8.0404003 -0.03935638 -11 0 C-12.051875 -0.01160156 -12.051875 -0.01160156 -13.125 -0.0234375 C-20.44045386 0.31185414 -26.88303281 4.83161892 -31.89453125 9.92578125 C-36.3619725 15.5694602 -40.27507373 22.75073731 -41 30 C-41.09474609 30.93005859 -41.09474609 30.93005859 -41.19140625 31.87890625 C-41.6370096 39.91414081 -39.44638682 48.48768768 -34.25 54.75 C-33.5075 55.4925 -32.765 56.235 -32 57 C-32.33 57.66 -32.66 58.32 -33 59 C-40.46206593 51.36834166 -43.36105888 43.64222463 -43.5 32.9375 C-43.3442156 21.92701889 -39.48804819 13.97777286 -32 6 C-23.89151166 -1.35634349 -10.09722588 -6.15146528 0 0 Z " fill="#F5F9FC" transform="translate(273,89)"/>
<path d="M0 0 C-1 3 -1 3 -3.34375 4.4375 C-4.3853125 4.953125 -5.426875 5.46875 -6.5 6 C-17.73318776 11.83927822 -28.67711761 18.63969964 -38.3359375 26.85546875 C-40 28 -40 28 -43 28 C-40.22501022 24.2135501 -37.53846041 21.76909856 -33.578125 19.265625 C-32.55332031 18.60949219 -31.52851563 17.95335938 -30.47265625 17.27734375 C-29.40917969 16.60832031 -28.34570312 15.93929687 -27.25 15.25 C-25.12833162 13.90399533 -23.00842996 12.55520023 -20.890625 11.203125 C-19.95250977 10.61176758 -19.01439453 10.02041016 -18.04785156 9.41113281 C-17.37206055 8.94545898 -16.69626953 8.47978516 -16 8 C-16 7.67 -16 7.34 -16 7 C-17.32 6.67 -18.64 6.34 -20 6 C-17.41958904 4.99183944 -14.83613056 3.9932889 -12.25 3 C-11.52039063 2.71382813 -10.79078125 2.42765625 -10.0390625 2.1328125 C-9.33007812 1.86210938 -8.62109375 1.59140625 -7.890625 1.3125 C-7.24125977 1.06113281 -6.59189453 0.80976562 -5.92285156 0.55078125 C-4 0 -4 0 0 0 Z " fill="#F7FAFD" transform="translate(409,104)"/>
<path d="M0 0 C0.66 0 1.32 0 2 0 C7.48995985 8.02222916 9.04856935 16.07142983 7.4375 25.6875 C5.78660395 31.67199818 2.80150401 37.02246775 -2.32421875 40.640625 C-4.51597823 41.86885737 -6.7081305 42.97324246 -9 44 C-9.99 44.495 -9.99 44.495 -11 45 C-13.26744274 45.14943856 -15.5403175 45.22144902 -17.8125 45.25 C-19.64748047 45.28867188 -19.64748047 45.28867188 -21.51953125 45.328125 C-25.19335454 44.98177129 -27.04424837 44.13940118 -30 42 C-29.01 41.505 -29.01 41.505 -28 41 C-27.319375 41.309375 -26.63875 41.61875 -25.9375 41.9375 C-20.24075282 43.99802558 -14.93091297 43.64507204 -9.3125 41.4375 C-2.50310902 38.04466756 1.47862186 32.40763168 4.30859375 25.45703125 C6.91132447 16.20777915 4.44257718 8.20168095 0 0 Z " fill="#F4F8FC" transform="translate(279,103)"/>
<path d="M0 0 C-0.70125 -0.01160156 -1.4025 -0.02320312 -2.125 -0.03515625 C-5.0847753 -0.06330629 -8.0404003 -0.03935638 -11 0 C-12.051875 -0.01160156 -12.051875 -0.01160156 -13.125 -0.0234375 C-20.16636072 0.29929153 -26.85079509 4.80011822 -31.69921875 9.7265625 C-33 11 -33 11 -35 11 C-32.4882013 5.1264505 -27.02123391 1.68241583 -21.3125 -0.875 C-14.82104788 -3.05602467 -5.98102349 -3.64377887 0 0 Z " fill="#E9F2FA" transform="translate(273,89)"/>
<path d="M0 0 C0.33 0.66 0.66 1.32 1 2 C0.34 2 -0.32 2 -1 2 C-1.22042969 2.54527344 -1.44085938 3.09054688 -1.66796875 3.65234375 C-3.42767757 6.75376604 -5.79241705 9.08257773 -8.3125 11.5625 C-8.78623047 12.04396484 -9.25996094 12.52542969 -9.74804688 13.02148438 C-12.612002 15.86976807 -15.44853006 18.07871298 -19 20 C-17.61531918 16.88146171 -16.00929552 14.7624273 -13.59375 12.36328125 C-12.93246094 11.70392578 -12.27117187 11.04457031 -11.58984375 10.36523438 C-10.90019531 9.68783203 -10.21054687 9.01042969 -9.5 8.3125 C-8.81035156 7.62349609 -8.12070312 6.93449219 -7.41015625 6.22460938 C-2.28111049 1.14055525 -2.28111049 1.14055525 0 0 Z " fill="#B5D5EF" transform="translate(354,154)"/>
<path d="M0 0 C-1 3 -1 3 -4 5 C-6.31974234 5.41755362 -8.65785793 5.7355646 -11 6 C-12.21623047 6.13921875 -12.21623047 6.13921875 -13.45703125 6.28125 C-15.63727773 6.52845905 -17.81814689 6.7674669 -20 7 C-17.33206665 4.33206665 -14.67368839 3.63659192 -11.125 2.375 C-9.89007813 1.92898437 -8.65515625 1.48296875 -7.3828125 1.0234375 C-4 0 -4 0 0 0 Z " fill="#EEF5FB" transform="translate(409,104)"/>
<path d="M0 0 C0.33 0 0.66 0 1 0 C1.66 3.96 2.32 7.92 3 12 C0 13 0 13 -2.26171875 12.00390625 C-3.06222656 11.52824219 -3.86273438 11.05257812 -4.6875 10.5625 C-5.49574219 10.08941406 -6.30398437 9.61632812 -7.13671875 9.12890625 C-7.75160156 8.75636719 -8.36648437 8.38382813 -9 8 C-8.34 7.67 -7.68 7.34 -7 7 C-5.0546875 7.77734375 -5.0546875 7.77734375 -2.875 8.9375 C-2.15054688 9.31777344 -1.42609375 9.69804687 -0.6796875 10.08984375 C-0.12539062 10.39019531 0.42890625 10.69054687 1 11 C0.67 10.01 0.34 9.02 0 8 C-0.12781786 5.32605036 -0.04391871 2.67904143 0 0 Z " fill="#F6FAFD" transform="translate(177,183)"/>
<path d="M0 0 C0.66 0.33 1.32 0.66 2 1 C0.71451591 2.33929505 -0.57858155 3.67128643 -1.875 5 C-2.59429687 5.7425 -3.31359375 6.485 -4.0546875 7.25 C-6 9 -6 9 -8 9 C-8 8.34 -8 7.68 -8 7 C-7.34 7 -6.68 7 -6 7 C-5.67 6.01 -5.34 5.02 -5 4 C-4.34 4 -3.68 4 -3 4 C-3 3.34 -3 2.68 -3 2 C-2.01 1.34 -1.02 0.68 0 0 Z " fill="#9FC9EB" transform="translate(252,98)"/>
<path d="M0 0 C0.66 0 1.32 0 2 0 C2.33 1.98 2.66 3.96 3 6 C2.01 6 1.02 6 0 6 C-1.6875 4 -1.6875 4 -3 2 C-2.34 2 -1.68 2 -1 2 C-0.67 1.34 -0.34 0.68 0 0 Z " fill="#E0EDF8" transform="translate(279,342)"/>
<path d="M0 0 C-1.69179328 2.04219706 -2.63727666 2.91793306 -5.26171875 3.51171875 C-6.06222656 3.56972656 -6.86273438 3.62773438 -7.6875 3.6875 C-8.49574219 3.75324219 -9.30398438 3.81898437 -10.13671875 3.88671875 C-10.75160156 3.92410156 -11.36648438 3.96148437 -12 4 C-8.47340299 0.47340299 -4.89254977 -0.27957427 0 0 Z " fill="#ABCFED" transform="translate(401,107)"/>
</svg>
